<?xml version="1.0" encoding="UTF-8"?>
<svg id="Layer_1" data-name="Layer 1" xmlns="http://www.w3.org/2000/svg" viewBox="0 0 1080 1350">
  <defs>
    <style>
      .cls-1 {
        fill-rule: evenodd;
      }
    </style>
  </defs>
  <g>
    <path d="M605,533.56v-102.45c0-3.35,1.16-6.16,3.49-8.48,2.33-2.33,5.17-3.6,8.49-3.83h12.63l46.57,78.84v-78.84h23.33v114.76h-24.29l-46.88-78.84v78.84h-23.34Z"/>
    <path d="M712.8,533.56v-102.45c0-3.32,1.16-6.16,3.49-8.48,2.36-2.33,5.17-3.49,8.51-3.49h11.66v46.91l44.55-46.91h29.6l-45.89,46.23,49.89,68.19h-28.61l-28.92-40.58c-5.11-6.64-9.82-9.25-14.13-7.8-4.34,1.45-6.5,4.14-6.5,8.15v40.24h-23.67.02Z"/>
  </g>
  <path class="cls-1" d="M249.41,548.44h101.86c40.32,0,71.1,8.79,92.43,26.38,21.33,19.22,31.94,45.19,31.94,77.9,0,20.75-4.19,38.34-12.56,52.75-8.38,13.6-20.26,24.33-35.45,32.31,19.87,8.79,35.16,21.16,45.97,37.21,9.93,15.13,14.9,35.07,14.9,59.91,0,39.87-12.18,71.05-36.52,93.44-25.13,21.57-60.48,32.31-106.16,32.31h-96.41v-74.22h90.56c21.23,0,37.59-4.4,48.99-13.19,10.62-7.98,15.97-21.57,15.97-40.79s-5.35-33.23-15.97-42.02c-9.83-7.97-26.59-11.96-50.16-11.96h-89.4v-70.54h86.96c19.67,0,34.09-3.58,43.24-10.84,9.06-7.16,13.64-18.4,13.64-33.64s-4.58-26.38-13.64-33.64c-7.6-6.44-22.4-9.61-44.41-9.61h-85.79v-71.77h.01Z"/>
  <polygon class="cls-1" points="493.25 960.65 493.25 549.88 574.47 549.88 574.47 960.65 493.25 960.65"/>
  <path d="M285.74,533.56v-94.16h-33.91v-8.32c0-3.32,1.16-6.13,3.49-8.46s5.14-3.49,8.49-3.49h79.2v20.26h-33.6v94.16h-23.67ZM355.99,533.56v-102.45c0-3.32,1.16-6.16,3.49-8.48,2.36-2.33,5.17-3.49,8.51-3.49h11.66v42.57h47.17v-42.57h24.01v114.42h-24.01v-50.91h-47.17v50.91h-23.67,0Z"/>
  <path class="cls-1" d="M765.54,906.16c-13.73,19.77-30.09,34.19-49.08,43.34-19.77,8.38-41.49,12.57-65.06,12.57-21.02,0-40.4-2.59-58.14-7.79v-84.4c17.55,14.32,39.97,21.48,67.3,21.48,25.81,0,47.14-7.21,63.89-21.72,16.75-15.29,27.37-36.33,31.94-63.01h-47.92c-11.39,0-21.13-4-29.12-11.98-7.99-7.99-11.98-17.63-11.98-29.02v-26.2h163.23v213.59h-21.72c-21.33,0-34.58-10.71-39.93-31.94l-3.41-14.9h0v-.02ZM593.25,557.11c18.19-5.46,37.97-8.2,59.31-8.2,48.7,0,89.02,11.78,120.96,35.45,31.17,25.13,49.87,57.95,55.91,98.37h-54.74c-15.97,0-27.85-7.3-35.45-21.81-5.26-9.16-12.85-17.63-22.79-25.23-15.2-10.71-35.36-16.07-60.48-16.07s-45.77,6.8-62.72,20.4v-82.91h0Z"/>
  <path class="cls-1" d="M515.41,399.46c-3.97,1.01-6.78,3.49-8.86,6.06-4.57,5.64,1.06,8.83,5.04,14.11l10.1,12.57c2.5-.86,3.13-1.88,6.63-2.15,2.9-.22,5.8-.03,8.63.36.94-1.81,2.16-3.38,3.33-5.1,1.19-1.75,2.25-3.76,3.61-5.23-.93,3.5-3.06,7.01-4.14,10.78l5.44,1.51c2.7-3.87,6.43-7.64,9.56-11.27l6.25-7.58c5.19-6.97-4.09-12.9-4.7-13.58-1.74.95-4.97,6.71-6.73,8.69l6.13-15.76c-5.99-5.45-22.66-5.81-30.69-3.87-4.24,1.03-5.6,1.98-8.24,4.15l5.97,20.6c-1.33-1.87-2.4-4.45-3.63-7-.64-1.32-1.15-2.39-1.77-3.63l-1.77-3.44c-.04-.06-.1-.16-.16-.24h0v.02ZM520.83,448.11c1.08-2.93,5.35-9.33,6.85-12.92-8.74,1.16-22.7,17.59-28.94,24.85-6.88,8-15.73,22.18-19.69,34.39-4.57,14.1-4.35,31.38,8.21,40.66,11.84,8.74,81.95,8.6,93.44.01,4.16-3.11,8.59-9.49,10.05-16.99,1.61-8.25-.02-16.7-2.34-23.85-2.81-8.66-8.62-19.81-13.73-26.88l-5.76-7.71c-4.47-5.97-19.74-23.06-29.08-24.65l2.98,13.88c-1-1.74-2.5-5.03-3.47-7.28-.82-1.89-2.3-5.51-3.39-7.14l-5.42.06-9.7,13.56h0Z"/>
</svg>